{
  "accessors": [
    {
      "bufferView": 2,
      "componentType": 5126,
      "count": 986,
      "max": [
        0.45705074071884155,
        0.45386821031570435,
        -0.63849318027496338
      ],
      "min": [
        -0.45705065131187439,
        -0.4538688063621521,
        -0.81434988975524902
      ],
      "type": "VEC3"
    },
    {
      "bufferView": 2,
      "byteOffset": 11832,
      "componentType": 5126,
      "count": 986,
      "max": [
        0.9999687671661377,
        0.9986690878868103,
        0.17545473575592041
      ],
      "min": [
        -0.9999687671661377,
        -0.9986690878868103,
        -1
      ],
      "type": "VEC3"
    },
    {
      "bufferView": 3,
      "componentType": 5126,
      "count": 986,
      "max": [
        0.34243950247764587,
        0.28358355164527893,
        0.99957847595214844,
        1
      ],
      "min": [
        -0.9619213342666626,
        -0.99844908714294434,
        -0.99957841634750366,
        1
      ],
      "type": "VEC4"
    },
    {
      "bufferView": 1,
      "componentType": 5126,
      "count": 986,
      "max": [
        0.99436825513839722,
        0.99326080083847046
      ],
      "min": [
        0.0056319031864404678,
        0.0057231113314628601
      ],
      "type": "VEC2"
    },
    {
      "bufferView": 0,
      "componentType": 5125,
      "count": 5184,
      "max": [
        985
      ],
      "min": [
        0
      ],
      "type": "SCALAR"
    },
    {
      "bufferView": 2,
      "byteOffset": 23664,
      "componentType": 5126,
      "count": 3454,
      "max": [
        0.94922327995300293,
        0.94922292232513428,
        0.99472546577453613
      ],
      "min": [
        -0.94922316074371338,
        -0.94922345876693726,
        -1.0868887901306152
      ],
      "type": "VEC3"
    },
    {
      "bufferView": 2,
      "byteOffset": 65112,
      "componentType": 5126,
      "count": 3454,
      "max": [
        1,
        1,
        1
      ],
      "min": [
        -1,
        -1,
        -1
      ],
      "type": "VEC3"
    },
    {
      "bufferView": 3,
      "byteOffset": 15776,
      "componentType": 5126,
      "count": 3454,
      "max": [
        0.36527544260025024,
        0.98424774408340454,
        0.99949920177459717,
        1
      ],
      "min": [
        -0.62827771902084351,
        -0.021429667249321938,
        -0.99949932098388672,
        1
      ],
      "type": "VEC4"
    },
    {
      "bufferView": 1,
      "byteOffset": 7888,
      "componentType": 5126,
      "count": 3454,
      "max": [
        0.99482446908950806,
        0.99247956275939941
      ],
      "min": [
        0.0018914381507784128,
        0.0071886200457811356
      ],
      "type": "VEC2"
    },
    {
      "bufferView": 0,
      "byteOffset": 20736,
      "componentType": 5125,
      "count": 18720,
      "max": [
        3453
      ],
      "min": [
        0
      ],
      "type": "SCALAR"
    }
  ],
  "asset": {
    "extras": {
      "author": "Vinny Passmore (https://sketchfab.com/HPrendering)",
      "license": "CC-BY-4.0 (http://creativecommons.org/licenses/by/4.0/)",
      "source": "https://sketchfab.com/3d-models/eye-blend-a8259f43d41e4204a7e9746dfd112c30",
      "title": "Eye Blend"
    },
    "generator": "Sketchfab-4.97.2",
    "version": "2.0"
  },
  "bufferViews": [
    {
      "buffer": 0,
      "byteLength": 95616,
      "byteOffset": 0,
      "name": "floatBufferViews",
      "target": 34963
    },
    {
      "buffer": 0,
      "byteLength": 35520,
      "byteOffset": 95616,
      "byteStride": 8,
      "name": "floatBufferViews",
      "target": 34962
    },
    {
      "buffer": 0,
      "byteLength": 106560,
      "byteOffset": 131136,
      "byteStride": 12,
      "name": "floatBufferViews",
      "target": 34962
    },
    {
      "buffer": 0,
      "byteLength": 71040,
      "byteOffset": 237696,
      "byteStride": 16,
      "name": "floatBufferViews",
      "target": 34962
    }
  ],
  "buffers": [
    {
      "byteLength": 308736,
      "uri": "eye_model.bin"
    }
  ],
  "images": [
    {
      "uri": "textures/Iris_001_Material_baseColor.png"
    },
    {
      "uri": "textures/Sclera_001_Material_baseColor.png"
    },
    {
      "uri": "textures/Sclera_001_Material_metallicRoughness.png"
    }
  ],
  "materials": [
    {
      "doubleSided": false,
      "emissiveFactor": [
        0.062121212159999994,
        0.062121212159999994,
        0.062121212159999994
      ],
      "name": "Iris_001_Material",
      "pbrMetallicRoughness": {
        "baseColorFactor": [
          1,
          1,
          1,
          1
        ],
        "baseColorTexture": {
          "index": 0,
          "texCoord": 0
        },
        "metallicFactor": 0.0077651515000000003,
        "roughnessFactor": 0.65890151519999995
      }
    },
    {
      "alphaMode": "BLEND",
      "doubleSided": false,
      "name": "Sclera_001_Material",
      "pbrMetallicRoughness": {
        "baseColorFactor": [
          1,
          1,
          1,
          1
        ],
        "baseColorTexture": {
          "index": 1,
          "texCoord": 0
        },
        "metallicFactor": 0,
        "metallicRoughnessTexture": {
          "index": 2,
          "texCoord": 0
        },
        "roughnessFactor": 1
      }
    }
  ],
  "meshes": [
    {
      "name": "Iris_Iris_001_Material_0",
      "primitives": [
        {
          "attributes": {
            "NORMAL": 1,
            "POSITION": 0,
            "TANGENT": 2,
            "TEXCOORD_0": 3
          },
          "indices": 4,
          "material": 0,
          "mode": 4
        }
      ]
    },
    {
      "name": "Sclera_Sclera_001_Material_0",
      "primitives": [
        {
          "attributes": {
            "NORMAL": 6,
            "POSITION": 5,
            "TANGENT": 7,
            "TEXCOORD_0": 8
          },
          "indices": 9,
          "material": 1,
          "mode": 4
        }
      ]
    }
  ],
  "nodes": [
    {
      "children": [
        1
      ],
      "name": "RootNode (gltf orientation matrix)",
      "rotation": [
        -0.70710678118654746,
        -0,
        -0,
        0.70710678118654757
      ]
    },
    {
      "children": [
        2
      ],
      "name": "RootNode (model correction matrix)"
    },
    {
      "children": [
        3
      ],
      "matrix": [
        1,
        0,
        0,
        0,
        0,
        0,
        1,
        0,
        0,
        -1,
        0,
        0,
        0,
        0,
        0,
        1
      ],
      "name": "6f415a151ac04ba7a094be28e2a1d1e5.fbx"
    },
    {
      "children": [
        4,
        6,
        8,
        11,
        14,
        17
      ],
      "name": "RootNode"
    },
    {
      "children": [
        5
      ],
      "matrix": [
        123.88134002685547,
        0,
        0,
        0,
        0,
        123.88134002685511,
        -9.3527811778049086e-06,
        0,
        0,
        9.3527811778049086e-06,
        123.88134002685511,
        0,
        0,
        0,
        -2.8244616985321045,
        1
      ],
      "name": "Iris"
    },
    {
      "mesh": 0,
      "name": "Iris_Iris_001_Material_0"
    },
    {
      "children": [
        7
      ],
      "matrix": [
        120.46364593505859,
        0,
        0,
        0,
        0,
        120.46364593505825,
        -9.0947524467117239e-06,
        0,
        0,
        9.0947524467117239e-06,
        120.46364593505825,
        0,
        0,
        0,
        0,
        1
      ],
      "name": "Sclera"
    },
    {
      "mesh": 1,
      "name": "Sclera_Sclera_001_Material_0"
    },
    {
      "children": [
        9
      ],
      "matrix": [
        100,
        0,
        0,
        0,
        0,
        99.999999999999716,
        -7.5497901264043296e-06,
        0,
        0,
        7.5497901264043296e-06,
        99.999999999999716,
        0,
        0,
        590.10906982421875,
        0,
        1
      ],
      "name": "Sun"
    },
    {
      "children": [
        10
      ],
      "matrix": [
        1,
        0,
        0,
        0,
        0,
        2.2204460492503131e-16,
        1,
        0,
        0,
        -1,
        2.2204460492503131e-16,
        0,
        0,
        0,
        0,
        1
      ],
      "name": ""
    },
    {
      "name": ""
    },
    {
      "children": [
        12
      ],
      "matrix": [
        -99.999999999998863,
        1.5099579909783707e-05,
        -2.1096897280043151e-20,
        0,
        -1.5099579909783665e-05,
        -99.999999999998579,
        -7.5497901264043279e-06,
        0,
        -1.1399866142542788e-12,
        -7.5497901264042406e-06,
        99.999999999999716,
        0,
        0.74152636528015137,
        -823.109619140625,
        2.0227105617523193,
        1
      ],
      "name": "Sun.001"
    },
    {
      "children": [
        13
      ],
      "matrix": [
        1,
        0,
        0,
        0,
        0,
        2.2204460492503131e-16,
        1,
        0,
        0,
        -1,
        2.2204460492503131e-16,
        0,
        0,
        0,
        0,
        1
      ],
      "name": ""
    },
    {
      "name": ""
    },
    {
      "children": [
        15
      ],
      "matrix": [
        -99.99999999999774,
        -1.5099579909783534e-05,
        -1.5099583094979555e-05,
        0,
        -1.5099580154982341e-05,
        -1.9470721168701743e-05,
        99.999999999996959,
        0,
        -1.5099582849780796e-05,
        99.999999999996959,
        1.9470718881642313e-05,
        0,
        0.74152636528015137,
        12.632179260253906,
        1338.7498779296875,
        1
      ],
      "name": "Sun.002"
    },
    {
      "children": [
        16
      ],
      "matrix": [
        1,
        0,
        0,
        0,
        0,
        2.2204460492503131e-16,
        1,
        0,
        0,
        -1,
        2.2204460492503131e-16,
        0,
        0,
        0,
        0,
        1
      ],
      "name": ""
    },
    {
      "name": ""
    },
    {
      "children": [
        18
      ],
      "matrix": [
        -99.999999999997712,
        1.5099579909783534e-05,
        1.5099575989552192e-05,
        0,
        -1.5099573529517991e-05,
        1.6292070270651493e-05,
        -99.999999999997527,
        0,
        -1.5099582369816692e-05,
        -99.999999999997527,
        -1.6292067983592062e-05,
        0,
        0.74152636528015137,
        12.632179260253906,
        -1212.7784423828125,
        1
      ],
      "name": "Sun.003"
    },
    {
      "children": [
        19
      ],
      "matrix": [
        1,
        0,
        0,
        0,
        0,
        2.2204460492503131e-16,
        1,
        0,
        0,
        -1,
        2.2204460492503131e-16,
        0,
        0,
        0,
        0,
        1
      ],
      "name": ""
    },
    {
      "name": ""
    }
  ],
  "samplers": [
    {
      "magFilter": 9729,
      "minFilter": 9987,
      "wrapS": 10497,
      "wrapT": 10497
    },
    {
      "magFilter": 9729,
      "minFilter": 9987,
      "wrapS": 33648,
      "wrapT": 33648
    }
  ],
  "scene": 0,
  "scenes": [
    {
      "name": "OSG_Scene",
      "nodes": [
        0
      ]
    }
  ],
  "textures": [
    {
      "sampler": 0,
      "source": 0
    },
    {
      "sampler": 1,
      "source": 1
    },
    {
      "sampler": 0,
      "source": 2
    }
  ]
}

